<svg id="Layer_1" data-name="Layer 1" xmlns="http://www.w3.org/2000/svg" viewBox="0 0 613.99 157.32">
  <defs>
    <style>
      .cls-1, .cls-4 {
        fill: #fff;
      }

      .cls-2, .cls-4 {
        opacity: 0.5;
      }

      .cls-3 {
        fill: #ecc173;
      }
    </style>
  </defs>
  <title>SCV-logo-white</title>
  <g>
    <g>
      <path class="cls-1" d="M319.69,4.67H285.42L268.18,23.53V74.64h68.74V23.53Zm-19.38,65H272.67V25.58l14.6-16h13Zm32.13,0H304.8V9.61h13l14.6,16Z"/>
      <polygon class="cls-1" points="276.6 27.37 276.6 33.45 296.38 54.7 296.38 45.28 278.14 25.69 276.6 27.37"/>
      <polygon class="cls-1" points="281 22.56 296.38 39.09 296.38 29.67 285.34 17.81 281 22.56"/>
      <polygon class="cls-1" points="276.6 49.17 291.7 65.39 296.38 65.39 296.38 61.01 276.6 39.76 276.6 49.17"/>
      <polygon class="cls-1" points="276.6 65.18 276.79 65.39 285.56 65.39 276.6 55.77 276.6 65.18"/>
      <polygon class="cls-1" points="296.38 13.98 296.33 13.93 288.89 13.93 288.23 14.64 296.38 23.4 296.38 13.98"/>
      <polygon class="cls-1" points="308.81 39.09 324.2 22.56 319.86 17.81 308.81 29.67 308.81 39.09"/>
      <polygon class="cls-1" points="316.31 13.93 308.87 13.93 308.81 13.98 308.81 23.4 316.96 14.64 316.31 13.93"/>
      <polygon class="cls-1" points="308.81 54.7 328.6 33.45 328.6 27.37 327.06 25.69 308.81 45.28 308.81 54.7"/>
      <polygon class="cls-1" points="308.81 65.39 313.5 65.39 328.6 49.17 328.6 39.76 308.81 61.01 308.81 65.39"/>
      <polygon class="cls-1" points="328.41 65.39 328.6 65.18 328.6 55.77 319.64 65.39 328.41 65.39"/>
    </g>
    <g class="cls-2">
      <path class="cls-1" d="M461.86,110.84a16.7,16.7,0,0,0-6.18-1h-3.06v31.51a10.32,10.32,0,0,0,1,5,7.85,7.85,0,0,0,1.19.12,13.64,13.64,0,0,1-.37-3.32V111.64h3.06a17.9,17.9,0,0,1,5.31.72A6.35,6.35,0,0,0,461.86,110.84Z"/>
      <path class="cls-1" d="M468.24,107.63a1.48,1.48,0,0,1-.67.75v7.82a7.73,7.73,0,0,1,.67,2.37h1.17V107.63Z"/>
      <path class="cls-1" d="M447.95,149.46l-5.21.11a6.31,6.31,0,0,1-3.17.73v1.17l10.21-.22,10.14.22V150.3a6.08,6.08,0,0,1-2.93-.64Z"/>
      <path class="cls-1" d="M440.33,109.85h-.18a14.42,14.42,0,0,0-7.58,1.68,5.94,5.94,0,0,0-2.39,2.74v4.3h1.17a6.39,6.39,0,0,1,3.06-5.25,12.92,12.92,0,0,1,5.93-1.6Z"/>
    </g>
    <g class="cls-2">
      <path class="cls-1" d="M59.59,145c-2.12-3.36-3.21-8.32-3.21-14.88s1.09-11.45,3.28-14.88A10.29,10.29,0,0,1,69,110.18a11.76,11.76,0,0,1,4.29.75A12,12,0,0,0,72,109.4a11.43,11.43,0,0,0-4.85-1,10.29,10.29,0,0,0-9.34,5.11q-3.28,5.14-3.28,14.88c0,6.56,1.09,11.52,3.21,14.88a11.57,11.57,0,0,0,1.58,2c.18.08.38.14.56.21C59.8,145.29,59.68,145.19,59.59,145Z"/>
      <path class="cls-1" d="M85.63,114c-.33-.32-.68-.61-1-.91,3.61,4,5.47,9.06,5.47,15.24,0,6.71-2.11,12.11-6.27,16.19S74,150.7,67.23,150.7q-9.32,0-15.34-5l-.07,0c.23.25.44.51.69.75,4.16,4.09,9.7,6.13,16.56,6.13s12.4-2,16.56-6.13,6.27-9.48,6.27-16.19S89.78,118.13,85.63,114Z"/>
    </g>
    <g class="cls-2">
      <path class="cls-1" d="M103.06,116.93v24.44a10.31,10.31,0,0,0,1,5,7.86,7.86,0,0,0,1.18.12,13.63,13.63,0,0,1-.37-3.32V118.9Z"/>
      <path class="cls-1" d="M101.75,149.46l-1.75.06a6.2,6.2,0,0,1-3.27.78v1.17l6.86-.22,6.78.22V150.3a6,6,0,0,1-3-.66Z"/>
      <path class="cls-1" d="M138.43,109.1a3.57,3.57,0,0,0-1,.89c-.8,1.1-1.24,2.92-1.24,5.47v34.65h-1.06l1.66,1.79H138V117.25c0-2.55.44-4.37,1.24-5.47s2.19-1.68,4.23-1.68v-1.17Z"/>
      <polygon class="cls-1" points="130.59 131.7 130.59 130.4 110.09 108.2 108.67 108.21 130.59 131.7"/>
    </g>
    <g class="cls-2">
      <path class="cls-1" d="M187.55,114c-.33-.32-.68-.61-1-.91,3.61,4,5.47,9.06,5.47,15.24,0,6.71-2.11,12.11-6.27,16.19s-9.77,6.13-16.56,6.13q-9.32,0-15.34-5.05l-.07,0c.23.25.44.51.69.75,4.16,4.09,9.7,6.13,16.56,6.13s12.4-2,16.56-6.13,6.27-9.48,6.27-16.19S191.71,118.13,187.55,114Z"/>
      <path class="cls-1" d="M161.51,145c-2.12-3.36-3.21-8.32-3.21-14.88s1.09-11.45,3.28-14.88a10.29,10.29,0,0,1,9.34-5.11,11.76,11.76,0,0,1,4.29.75,12,12,0,0,0-1.27-1.53,11.43,11.43,0,0,0-4.85-1,10.29,10.29,0,0,0-9.34,5.11q-3.28,5.14-3.28,14.88c0,6.56,1.09,11.52,3.21,14.88a11.57,11.57,0,0,0,1.58,2c.18.08.38.14.56.21C161.72,145.29,161.6,145.19,161.51,145Z"/>
    </g>
    <g class="cls-2">
      <polygon class="cls-1" points="276.87 121.03 275.6 117.73 271.6 128.45 274.1 128.45 276.87 121.03"/>
      <path class="cls-1" d="M207.42,146.47a7.17,7.17,0,0,1-.3-2.08,8.83,8.83,0,0,1,.07-1.31c.07-.51.07-.95.15-1.24l3.58-20.36c-.43-1.07-.93-2.29-1.5-3.68L205.5,140c-.07.29-.07.73-.15,1.24a8.78,8.78,0,0,0-.07,1.31,6.33,6.33,0,0,0,1.09,3.72A6,6,0,0,0,207.42,146.47Z"/>
      <path class="cls-1" d="M300.59,147.28v.07l.13.08Z"/>
      <path class="cls-1" d="M268.46,149.68c-1.46-.05-2.92-.15-4.38-.19-.74,0-1.49,0-2.23,0a3.26,3.26,0,0,0-1,.08c-.31.12-.53.4-.87.47s-.68-.2-1-.3a2.55,2.55,0,0,0-.73-.08c-2.85,0-5.7-.12-8.54-.18l-.9,0-6.14.13a4.18,4.18,0,0,1-2.38.71v1.17l10.36-.22c2.6.06,6.55.18,9.15.18,2,0,2.59-.1,4.58-.18l5.91.22V150.3a5.2,5.2,0,0,1-1.84-.76Z"/>
      <path class="cls-1" d="M269.1,135.14l-2.32,6.23a16,16,0,0,0-.88,2.41,8.54,8.54,0,0,0-.36,2.11c0,1.06.66,1.82,1.94,2.31a2.23,2.23,0,0,1-.1-.53,8.54,8.54,0,0,1,.36-2.11,16.09,16.09,0,0,1,.88-2.41l2.32-6.23H283l-.69-1.79Z"/>
      <path class="cls-1" d="M303.25,149.67l-9-.21-5.53.13a5.32,5.32,0,0,1-1.76.71v1.17l9.12-.22,9.26.22V150.3A5.62,5.62,0,0,1,303.25,149.67Z"/>
      <path class="cls-1" d="M290.19,125.22l6.35,16.14a16,16,0,0,0,2.82,4.86,5.5,5.5,0,0,0,.62.16,19.46,19.46,0,0,1-1.61-3.23l-5.78-14.69h0l-8.08-20.54h-1.13l6.81,17.31Z"/>
      <path class="cls-1" d="M252.32,140.34a10.85,10.85,0,0,0,2.3,5.72c.18.07.34.15.52.21s.12-.07.19-.09a13.09,13.09,0,0,1-1.18-4l-3.43-24.36-.22-2.19a6.13,6.13,0,0,1,1.24-4,4.3,4.3,0,0,1,3.43-1.46v-1.17l-4.48.15a3.93,3.93,0,0,0-.78.69,6.14,6.14,0,0,0-1.24,4l.22,2.19Z"/>
      <path class="cls-1" d="M226.41,129.83c-2.69-7.18-5.46-14.13-8.29-20.89L217,109c3,7.22,5.93,14.67,8.75,22.37Z"/>
      <path class="cls-1" d="M202.94,149.46l-2.87.08a6.44,6.44,0,0,1-3.09.76v1.17l7.8-.22,7.73.22V150.3a5.36,5.36,0,0,1-2.62-.64Z"/>
      <path class="cls-1" d="M225.19,149.68h-.36l.66,1.79H227L238.28,124l-.66-4.66Z"/>
    </g>
    <g class="cls-2">
      <path class="cls-1" d="M372.35,117.28c.17.66.37,1.31.48,2h1.36V101.68h-1.36a2.58,2.58,0,0,1-.48,1.33Z"/>
      <path class="cls-1" d="M345.4,141.64c-3.3-4-5-9.57-5-16.59,0-6.35,1.52-11.51,4.49-15.49a13.53,13.53,0,0,1,11.26-5.93,15.13,15.13,0,0,1,7.35,1.93,17.44,17.44,0,0,0-1.32-1.41c-.13-.12-.28-.21-.42-.32a15.13,15.13,0,0,0-7.45-2,13.53,13.53,0,0,0-11.26,5.93c-3,4-4.49,9.14-4.49,15.49,0,7,1.7,12.61,5,16.59a17.81,17.81,0,0,0,2.09,2.15l.14.07C345.67,141.93,345.53,141.8,345.4,141.64Z"/>
      <path class="cls-1" d="M374.1,141.05a23.72,23.72,0,0,1-5.84,4.32,25.27,25.27,0,0,1-16.06,5.49c-5.93,0-10.75-1.35-14.48-4.15-.44-.33-.82-.67-1.24-1l-.51-.31a31,31,0,0,0,3.58,3.1c3.73,2.8,8.55,4.15,14.48,4.15,8.38,0,15.49-3.47,21.08-10.5Z"/>
    </g>
    <g class="cls-2">
      <path class="cls-1" d="M422,110c-.8,1.1-1.24,2.92-1.24,5.47v25.89a10.32,10.32,0,0,0,1,5,7.87,7.87,0,0,0,1.19.12,13.64,13.64,0,0,1-.37-3.32V117.25c0-2.55.44-4.37,1.24-5.47a3.7,3.7,0,0,1,1.57-1.2V109l-2.29,0A3.6,3.6,0,0,0,422,110Z"/>
      <path class="cls-1" d="M418.83,149.46l-5.75.17v1.84l7.59-.22,7.44.22V150.3a6.06,6.06,0,0,1-3-.65Z"/>
      <path class="cls-1" d="M411.24,147.58l-2.88.08v-.8a15.36,15.36,0,0,1-1.36.75,20.78,20.78,0,0,1-11,3.07,14.49,14.49,0,0,1-8.9-2.51c2.25,2.84,5.8,4.3,10.73,4.3a21,21,0,0,0,13.41-4.74Z"/>
      <path class="cls-1" d="M393.08,110c-.8,1.1-1.24,2.92-1.24,5.47v21.37q0,5.36,1.75,7.88h0a7.53,7.53,0,0,0,1,.3,17.48,17.48,0,0,1-1-6.4V117.25c0-2.55.44-4.37,1.24-5.47s2.19-1.68,4.23-1.68v-1.17l-4.95.11A3.6,3.6,0,0,0,393.08,110Z"/>
    </g>
    <g class="cls-2">
      <path class="cls-1" d="M487.72,111.64h2.7a14.27,14.27,0,0,1,3.65.44,6.39,6.39,0,0,0-.9-1.47,12.83,12.83,0,0,0-4.58-.75h-2.7v14.67c.64,0,1.27,0,1.84-.11Z"/>
      <path class="cls-1" d="M501.5,129.68a25.44,25.44,0,0,1,3.13,4.17c1.6,2.55,3,4.89,4.37,7a50.36,50.36,0,0,0,3.65,5.32,8.36,8.36,0,0,0,1.81,1.75,50.37,50.37,0,0,1-3.62-5.29c-1.39-2.11-2.77-4.45-4.37-7A24.5,24.5,0,0,0,501.5,129.68Z"/>
      <path class="cls-1" d="M490.1,129.7a6,6,0,0,0-2.24-.44h-2v12.11a10.29,10.29,0,0,0,1,5,7.85,7.85,0,0,0,1.18.12,13.62,13.62,0,0,1-.37-3.32V131h2a6,6,0,0,1,1.75.28A14.5,14.5,0,0,0,490.1,129.7Z"/>
      <path class="cls-1" d="M481.15,149.46l-5.21.11a6.31,6.31,0,0,1-3.17.73v1.17l10.21-.22,10.21.22V150.3a6.08,6.08,0,0,1-2.93-.64Z"/>
      <path class="cls-1" d="M515.65,149.19v.49H504.77a13.25,13.25,0,0,0,1.62,1.79h11.09V150.3A4.56,4.56,0,0,1,515.65,149.19Z"/>
      <path class="cls-1" d="M507.92,117.73c0,5.18-2.92,8.39-8.68,9.77a22.69,22.69,0,0,1,1.89,1.77c5.72-1.39,8.63-4.6,8.63-9.76a9.56,9.56,0,0,0-3.5-7.66c-.1-.08-.22-.14-.32-.22A9.62,9.62,0,0,1,507.92,117.73Z"/>
    </g>
    <g class="cls-2">
      <path class="cls-1" d="M533.76,124.84V111.57h7.51a11.66,11.66,0,0,1,2.91.35,7.46,7.46,0,0,0-.92-1.49,10.64,10.64,0,0,0-3.82-.65h-7.51v15.06Z"/>
      <path class="cls-1" d="M548.35,123.53h-1.17a4.85,4.85,0,0,1-.67,2.57v8.52a6.87,6.87,0,0,1,.67,1.83h1.17Z"/>
      <path class="cls-1" d="M550.9,108.94h-1.84v7.13a10.39,10.39,0,0,1,.67,2.12h1.17Z"/>
      <path class="cls-1" d="M551.12,141.11a21.63,21.63,0,0,1-1,2.2l-.59,6.37-15.61-.15-12,.1a6.45,6.45,0,0,1-3,.66v1.17l16.92-.15,15.61.15.95-10.21Z"/>
      <path class="cls-1" d="M533.76,143v-11.6h6.49a10.27,10.27,0,0,1,1.84.22,6,6,0,0,0-.8-1.59,9.71,9.71,0,0,0-2.87-.42h-6.49v11.6a7.34,7.34,0,0,0,.71,3.45,10,10,0,0,0,1.31.22A9.7,9.7,0,0,1,533.76,143Z"/>
    </g>
    <g class="cls-2">
      <path class="cls-1" d="M573.16,111.64h2.7a14.27,14.27,0,0,1,3.65.44,6.39,6.39,0,0,0-.9-1.47,12.83,12.83,0,0,0-4.58-.75h-2.7v14.67c.64,0,1.27,0,1.84-.11Z"/>
      <path class="cls-1" d="M586.93,129.67a25.45,25.45,0,0,1,3.14,4.18c1.6,2.55,3,4.89,4.37,7a50.38,50.38,0,0,0,3.65,5.32,8.36,8.36,0,0,0,1.81,1.75,50.39,50.39,0,0,1-3.62-5.29c-1.39-2.11-2.77-4.45-4.37-7A24.54,24.54,0,0,0,586.93,129.67Z"/>
      <path class="cls-1" d="M601.08,149.19v.49H590.21a13.25,13.25,0,0,0,1.62,1.79h11.09V150.3A4.56,4.56,0,0,1,601.08,149.19Z"/>
      <path class="cls-1" d="M566.58,149.46l-5.21.11a6.31,6.31,0,0,1-3.17.73v1.17l10.21-.22,10.21.22V150.3a6.08,6.08,0,0,1-2.93-.64Z"/>
      <path class="cls-1" d="M593.35,117.73c0,5.18-2.92,8.39-8.68,9.77a22.75,22.75,0,0,1,1.89,1.77c5.72-1.39,8.63-4.6,8.63-9.76a9.56,9.56,0,0,0-3.5-7.66c-.1-.08-.22-.14-.32-.22A9.62,9.62,0,0,1,593.35,117.73Z"/>
      <path class="cls-1" d="M575.54,129.7a6,6,0,0,0-2.24-.44h-2v12.11a10.29,10.29,0,0,0,1,5,7.85,7.85,0,0,0,1.18.12,13.62,13.62,0,0,1-.37-3.32V131h2a6,6,0,0,1,1.75.28A14.5,14.5,0,0,0,575.54,129.7Z"/>
    </g>
    <g class="cls-2">
      <polygon class="cls-1" points="301.55 126.16 301.73 127.18 318.21 124.17 317.79 121.88 317.34 121.97 317.57 123.24 301.55 126.16"/>
      <polygon class="cls-1" points="318.76 129.57 318.34 127.28 317.89 127.36 318.13 128.64 302.1 131.56 302.29 132.58 318.76 129.57"/>
    </g>
    <g class="cls-2">
      <path class="cls-1" d="M14.3,103.71a8.51,8.51,0,0,1,5.84-1.86,10.64,10.64,0,0,1,2.51.32,11.17,11.17,0,0,0-2.52-.32,8.5,8.5,0,0,0-5.84,1.86,6.2,6.2,0,0,0-2.2,4.83s0,.07,0,.11,0-.07,0-.1A6.2,6.2,0,0,1,14.3,103.71Z"/>
      <path class="cls-1" d="M9.27,143.28c-.19-.25-.36-.53-.53-.8C8.91,142.75,9.08,143,9.27,143.28Z"/>
      <path class="cls-1" d="M23,102.25a12,12,0,0,1,2.33.9A11.43,11.43,0,0,0,23,102.25Z"/>
      <path class="cls-1" d="M15.41,114.63c-.29-.26-.55-.52-.8-.78C14.86,114.11,15.12,114.37,15.41,114.63Z"/>
      <path class="cls-1" d="M12.67,111a7.1,7.1,0,0,1-.28-.66C12.46,110.56,12.58,110.78,12.67,111Z"/>
      <path class="cls-1" d="M13.78,112.87c-.19-.25-.39-.51-.55-.76C13.38,112.37,13.58,112.62,13.78,112.87Z"/>
      <path class="cls-1" d="M8.15,141.5c-.16-.31-.32-.63-.46-1C7.83,140.87,8,141.19,8.15,141.5Z"/>
      <path class="cls-1" d="M7.27,139.46c-.12-.34-.25-.67-.35-1C7,138.78,7.15,139.11,7.27,139.46Z"/>
      <path class="cls-1" d="M33.43,105.65l.09,6.26h-.09a11.87,11.87,0,0,1,.49,1.79h1.44l-.09-6.26.09-6.18H33.91a2.89,2.89,0,0,1-.43.43Z"/>
      <path class="cls-1" d="M7.27,139.46c.13.37.26.74.41,1.09s.3.65.46,1,.38.66.59,1,.34.55.53.8a12.17,12.17,0,0,0,1.23,1.38l.42.2a15.26,15.26,0,0,1-2.66-7H6.91v.58h0C7,138.78,7.15,139.11,7.27,139.46Z"/>
      <path class="cls-1" d="M23,102.25l-.33-.09a10.64,10.64,0,0,0-2.51-.32,8.51,8.51,0,0,0-5.84,1.86,6.2,6.2,0,0,0-2.2,4.83s0,.07,0,.1a6.2,6.2,0,0,0,.28,1.7,7.1,7.1,0,0,0,.28.66,7.77,7.77,0,0,0,.55,1.11c.16.26.36.51.55.76a11.56,11.56,0,0,0,.83,1c.25.26.51.52.8.78l.36.3a7.27,7.27,0,0,1-1.84-4.6,6.2,6.2,0,0,1,2.2-4.83A8.5,8.5,0,0,1,22,103.63a11.16,11.16,0,0,1,4.89,1.17,12.8,12.8,0,0,0-1.53-1.64h0A12,12,0,0,0,23,102.25Z"/>
      <path class="cls-1" d="M35.61,129.79a27.93,27.93,0,0,0-2.34-2.32c.16.18.35.35.51.53a12.38,12.38,0,0,1,2.71,8.29,13.11,13.11,0,0,1-4.66,10.41c-3.13,2.8-7.2,4.15-12.19,4.15a26.79,26.79,0,0,1-6.26-.93A28.79,28.79,0,0,0,9,149a2.9,2.9,0,0,0-2,.61l-.06,2.61H8.26c.25-.93,1.1-1.44,2.54-1.44a28.76,28.76,0,0,1,4.4.93,26.79,26.79,0,0,0,6.26.93c5,0,9.06-1.35,12.19-4.15a13.11,13.11,0,0,0,4.66-10.41A12.38,12.38,0,0,0,35.61,129.79Z"/>
      <path class="cls-1" d="M8.74,142.48c-.21-.32-.41-.64-.59-1C8.33,141.84,8.53,142.17,8.74,142.48Z"/>
      <path class="cls-1" d="M7.69,140.55c-.15-.35-.29-.72-.41-1.09C7.4,139.83,7.53,140.2,7.69,140.55Z"/>
      <path class="cls-1" d="M10.48,144.65h0a12.17,12.17,0,0,1-1.23-1.38A12.18,12.18,0,0,0,10.48,144.65Z"/>
      <polygon class="cls-1" points="6.92 138.43 6.92 138.41 6.92 138.42 6.92 138.43"/>
      <path class="cls-1" d="M15.8,115l.06,0-.09-.12-.36-.3C15.55,114.75,15.65,114.88,15.8,115Z"/>
      <path class="cls-1" d="M14.61,113.85a11.56,11.56,0,0,1-.83-1A11.67,11.67,0,0,0,14.61,113.85Z"/>
      <path class="cls-1" d="M13.23,112.11a7.77,7.77,0,0,1-.55-1.11A7.78,7.78,0,0,0,13.23,112.11Z"/>
      <path class="cls-1" d="M22.65,102.16l.33.09Z"/>
      <path class="cls-1" d="M25.32,103.15h0Z"/>
      <path class="cls-1" d="M12.39,110.34a6.2,6.2,0,0,1-.28-1.7A6.14,6.14,0,0,0,12.39,110.34Z"/>
    </g>
    <path class="cls-3" d="M300.76,147.44l-.13-.15v.07l.13.08"/>
    <g id="Logo">
      <path class="cls-1" d="M298.52,123l.42,2.29,16.48-3L315,120Z"/>
      <path class="cls-1" d="M299.07,128.38l.43,2.29,16.47-3-.42-2.29Z"/>
    </g>
    <path class="cls-1" d="M23.44,119.81c-3.13-1.95-6.18-3.89-9.14-5.76-3.39-2.37-5.08-4.91-5.08-7.53a6.2,6.2,0,0,1,2.2-4.83,8.51,8.51,0,0,1,5.84-1.86,11.74,11.74,0,0,1,7.62,2.88,11.92,11.92,0,0,1,4.32,7.19h1.44l-.09-6.26.09-6.18H29.19a3.22,3.22,0,0,1-2.62,1.18,24.28,24.28,0,0,1-4.4-.76,25,25,0,0,0-5.42-.76,14.39,14.39,0,0,0-10.24,4,12.87,12.87,0,0,0-4.15,9.73c0,3.72.85,6.6,2.62,8.72a30.22,30.22,0,0,0,7,6.18c3,1.95,5.84,3.89,8.72,5.76,3.3,2.29,4.91,4.74,4.91,7.2a6.56,6.56,0,0,1-2.54,5.25,9.51,9.51,0,0,1-6.43,2.12,12.59,12.59,0,0,1-8.89-3.22A14.24,14.24,0,0,1,3.54,134H2.19l.17,7.19-.17,7.2H3.54c.25-.93,1.1-1.44,2.54-1.44a28.78,28.78,0,0,1,4.4.93,26.79,26.79,0,0,0,6.26.93c5,0,9.06-1.35,12.19-4.15a13.11,13.11,0,0,0,4.66-10.41,12.38,12.38,0,0,0-2.71-8.3A35.67,35.67,0,0,0,23.44,119.81Z"/>
    <path class="cls-1" d="M64.35,104.12c-6.85,0-12.4,2-16.56,6.13s-6.27,9.48-6.27,16.12,2.11,12.11,6.27,16.19,9.7,6.13,16.56,6.13,12.4-2,16.56-6.13,6.27-9.48,6.27-16.19-2.11-12-6.27-16.12S71.13,104.12,64.35,104.12Zm9.34,37.05a10.48,10.48,0,0,1-9.41,5.11,10.41,10.41,0,0,1-9.41-5c-2.12-3.36-3.21-8.32-3.21-14.88s1.09-11.45,3.28-14.88a10.29,10.29,0,0,1,9.34-5.11,10.48,10.48,0,0,1,9.41,5.11c2.26,3.43,3.36,8.39,3.36,14.88S75.95,137.82,73.68,141.17Z"/>
    <path class="cls-1" d="M125,105.14v1.17q3.17,0,4.38,1.75c.8,1.17,1.17,3,1.17,5.4v20.06l-26.48-28.37-6.34.22-6.42-.22v1.17a10.68,10.68,0,0,1,6.13,4.52v28.52c0,2.55-.36,4.38-1.17,5.47s-2.26,1.68-4.3,1.68v1.17l6.86-.22,6.78.22V146.5c-2,0-3.43-.58-4.23-1.75a9.65,9.65,0,0,1-1.24-5.4V113.82l31.88,34.28h1.24V113.46c0-2.55.44-4.37,1.24-5.47s2.19-1.68,4.23-1.68v-1.17l-6.78.22Z"/>
    <path class="cls-1" d="M166.27,104.12c-6.85,0-12.4,2-16.56,6.13s-6.27,9.48-6.27,16.12,2.11,12.11,6.27,16.19,9.7,6.13,16.56,6.13,12.4-2,16.56-6.13,6.27-9.48,6.27-16.19-2.11-12-6.27-16.12S173.06,104.12,166.27,104.12Zm9.34,37.05a11.27,11.27,0,0,1-18.82.08c-2.12-3.36-3.21-8.32-3.21-14.88s1.09-11.45,3.28-14.88a10.29,10.29,0,0,1,9.34-5.11,10.48,10.48,0,0,1,9.41,5.11c2.26,3.43,3.36,8.39,3.36,14.88S177.87,137.82,175.61,141.17Z"/>
    <path class="cls-1" d="M279.8,104.12h-5.69l-13.2,35.23c-1.46,3.86-3.41,6.18-5.76,6.92-3.23-1-5.1-3.62-5.71-7.94L246,114l-.22-2.19a6.14,6.14,0,0,1,1.24-4,4.3,4.3,0,0,1,3.43-1.46v-1.17l-6.71.22-7.07-.22-12,29c-3.57-10.07-7.37-19.7-11.23-29l-7.51.22-7.44-.22v1.17a9,9,0,0,1,6.2,3.28L200,137.09c-1,6.27-3.57,9.41-7.73,9.41v1.17l7.8-.22,7.73.22V146.5a5,5,0,0,1-3.94-1.68,6.21,6.21,0,0,1-1.46-4.23,8.79,8.79,0,0,1,.07-1.31c.07-.51.07-.95.15-1.24l4.52-25.75c1.9,4.6,3.35,8.1,4.3,10.5s2,5.4,3.43,9,3.28,8.83,5.91,15.9h1.53l14.37-35,3.5,24.8.22,2.92a6.79,6.79,0,0,1-1.31,4.37,4.15,4.15,0,0,1-3.5,1.75v1.17l10.36-.22,5.83.13c1.39,0,2,0,3.38,0s3.27-.1,4.52-.14l5.91.22V146.5c-2-.44-2.92-1.31-2.92-2.63a8.54,8.54,0,0,1,.36-2.11,16,16,0,0,1,.88-2.41l2.32-6.23h15.33l2.41,6.23a13.14,13.14,0,0,1,1.17,4.52c0,1.31-.95,2.19-2.92,2.63v1.17l9.12-.22,9.26.22V146.5c-2.84-.29-5.18-2.7-6.93-7.15ZM268,128.45l5.78-15.51,6,15.51Z"/>
    <path class="cls-1" d="M353.8,143.94a16,16,0,0,1-13.12-6.09c-3.3-4-5-9.57-5-16.59,0-6.35,1.52-11.51,4.49-15.49a13.53,13.53,0,0,1,11.26-5.93,15.54,15.54,0,0,1,10.75,4.32,18.75,18.75,0,0,1,5.92,11.34h1.36V97.89h-1.36c-.42,4.15-6.52,1.44-10.67.26a29.52,29.52,0,0,0-7.37-1,25.73,25.73,0,0,0-11.43,2.54,23.38,23.38,0,0,0-8.38,6.94,32.28,32.28,0,0,0-4.66,8.38,25.36,25.36,0,0,0-1.52,8.8,24.48,24.48,0,0,0,10.75,20.91c3.73,2.8,8.55,4.15,14.48,4.15,8.38,0,15.49-3.47,21.08-10.5l-1-1.1A21.42,21.42,0,0,1,353.8,143.94Z"/>
    <path class="cls-1" d="M402.89,105.14v1.17c2,0,3.5.58,4.3,1.75s1.17,3,1.17,5.4V139c-3.65,4.16-7.58,6.2-11.74,6.2-2.77,0-4.74-.8-5.91-2.48s-1.75-4.3-1.75-7.88V113.46c0-2.55.44-4.37,1.24-5.47s2.19-1.68,4.23-1.68v-1.17l-10.21.22L374,105.14v1.17c2,0,3.5.58,4.3,1.75s1.17,3,1.17,5.4v20.72c0,9.7,4.52,14.51,13.64,14.51a21.3,21.3,0,0,0,15.24-6.34v5.32l7.59-.22,7.44.22V146.5c-2,0-3.43-.58-4.23-1.75a9.67,9.67,0,0,1-1.24-5.4V113.46c0-2.55.44-4.37,1.24-5.47s2.19-1.68,4.23-1.68v-1.17l-10.21.22Z"/>
    <path class="cls-1" d="M460.09,105.14H430c-2,0-3.06-.44-3.35-1.31h-1.17v10.94h1.17a6.39,6.39,0,0,1,3.06-5.25,14.42,14.42,0,0,1,7.58-1.68h3.07v31.51c0,2.55-.37,4.38-1.17,5.47s-2.26,1.68-4.3,1.68v1.17l10.21-.22,10.14.22V146.5c-2,0-3.43-.58-4.23-1.75a9.67,9.67,0,0,1-1.24-5.4V107.84h3.06c6.64,0,10.21,2.33,10.72,6.93h1.17V103.83h-1.17C463.23,104.71,462.13,105.14,460.09,105.14Z"/>
    <path class="cls-1" d="M509.77,144.17a50.36,50.36,0,0,1-3.65-5.32c-1.39-2.11-2.77-4.45-4.37-7a24.36,24.36,0,0,0-5.4-6.35c5.76-1.39,8.68-4.6,8.68-9.77a9.56,9.56,0,0,0-3.5-7.66c-2.33-2-5.47-2.92-9.48-2.92h-24v1.17c2,0,3.5.58,4.31,1.75a9.74,9.74,0,0,1,1.17,5.4v25.89c0,2.55-.37,4.38-1.17,5.47s-2.26,1.68-4.31,1.68v1.17l10.21-.22,10.21.22V146.5c-2,0-3.43-.58-4.23-1.75a9.64,9.64,0,0,1-1.24-5.4V127.25h2q4.27,0,7.66,5.91c2.19,3.94,3.94,7.07,5.25,9.34a18.64,18.64,0,0,0,3.79,5.18h11.09V146.5A6.08,6.08,0,0,1,509.77,144.17ZM492.56,122.5c-1.53,1.39-3.94,2-7.15,2H483v-16.7h2.7c6.05,0,9.12,2.7,9.12,8.17C494.82,119,494.09,121.19,492.56,122.5Z"/>
    <path class="cls-1" d="M542.32,143.29a11.42,11.42,0,0,1-6.64,1.68c-2.55,0-4.23-.44-5.18-1.31s-1.46-2.33-1.46-4.45v-11.6h6.49c3.94,0,6.27,1.68,6.93,5h1.17V119.73h-1.17a4.23,4.23,0,0,1-1.82,3.8,9.28,9.28,0,0,1-5.33,1.31H529V107.77h7.51c4.74,0,7.58,2.19,8.46,6.64h1.17v-9.26l-16.7.07-15.39-.07v1.17c2,0,3.5.58,4.3,1.75a9.74,9.74,0,0,1,1.17,5.4v25.89c0,2.55-.37,4.38-1.17,5.47s-2.26,1.68-4.3,1.68v1.17l16.92-.15,15.61.15.95-10.21-1.17-.14C545.24,140.23,543.85,142.2,542.32,143.29Z"/>
    <path class="cls-1" d="M595.21,144.17a50.38,50.38,0,0,1-3.65-5.32c-1.39-2.11-2.77-4.45-4.37-7a24.41,24.41,0,0,0-5.4-6.35c5.76-1.39,8.68-4.6,8.68-9.77a9.56,9.56,0,0,0-3.5-7.66c-2.33-2-5.47-2.92-9.48-2.92h-24v1.17c2,0,3.5.58,4.3,1.75a9.74,9.74,0,0,1,1.17,5.4v25.89c0,2.55-.37,4.38-1.17,5.47s-2.26,1.68-4.3,1.68v1.17l10.21-.22,10.21.22V146.5c-2,0-3.43-.58-4.23-1.75a9.64,9.64,0,0,1-1.24-5.4V127.25h2q4.27,0,7.66,5.91c2.19,3.94,3.94,7.07,5.25,9.34a18.64,18.64,0,0,0,3.79,5.18H598.2V146.5A6.08,6.08,0,0,1,595.21,144.17ZM578,122.5c-1.53,1.39-3.94,2-7.15,2h-2.41v-16.7h2.7c6.05,0,9.12,2.7,9.12,8.17C580.26,119,579.53,121.19,578,122.5Z"/>
    <path class="cls-4" d="M611.8,140.65a6.39,6.39,0,1,1-6.38-6.38,6.39,6.39,0,0,1,6.38,6.38m-11.74,0a5.36,5.36,0,1,0,5.34-5.34,5.36,5.36,0,0,0-5.34,5.34m3-3.56h2.47c.84,0,2.5,0,2.5,1.89a1.65,1.65,0,0,1-1.35,1.75c1,.06,1,.71,1.18,1.62a7.28,7.28,0,0,0,.38,1.89h-1.52c0-.35-.26-2.17-.26-2.27-.1-.4-.24-.6-.74-.6h-1.26v2.87H603Zm1.35,3.14h1.12a1,1,0,0,0,1.08-1c0-1-.68-1-1.05-1h-1.15Z"/>
  </g>
</svg>
